<?xml version="1.0" encoding="utf-8" standalone="no"?>
<!DOCTYPE svg PUBLIC "-//W3C//DTD SVG 1.1//EN"
  "http://www.w3.org/Graphics/SVG/1.1/DTD/svg11.dtd">
<svg xmlns:xlink="http://www.w3.org/1999/xlink" width="250.464844pt" height="178.11875pt" viewBox="0 0 250.464844 178.11875" xmlns="http://www.w3.org/2000/svg" version="1.1">
 <metadata>
  <rdf:RDF xmlns:dc="http://purl.org/dc/elements/1.1/" xmlns:cc="http://creativecommons.org/ns#" xmlns:rdf="http://www.w3.org/1999/02/22-rdf-syntax-ns#">
   <cc:Work>
    <dc:type rdf:resource="http://purl.org/dc/dcmitype/StillImage"/>
    <dc:date>2026-06-03T17:37:37.458987</dc:date>
    <dc:format>image/svg+xml</dc:format>
    <dc:creator>
     <cc:Agent>
      <dc:title>Matplotlib v3.10.8, https://matplotlib.org/</dc:title>
     </cc:Agent>
    </dc:creator>
   </cc:Work>
  </rdf:RDF>
 </metadata>
 <defs>
  <style type="text/css">*{stroke-linejoin: round; stroke-linecap: butt}</style>
 </defs>
 <g id="figure_1">
  <g id="patch_1">
   <path d="M 0 178.11875 
L 250.464844 178.11875 
L 250.464844 0 
L 0 0 
z
" style="fill: #ffffff"/>
  </g>
  <g id="axes_1">
   <g id="patch_2">
    <path d="M 86.318594 144.43375 
L 235.198594 144.43375 
L 235.198594 17.27875 
L 86.318594 17.27875 
z
" style="fill: #ffffff"/>
   </g>
   <g id="patch_3">
    <path d="M 86.318594 23.058523 
L 192.661451 23.058523 
L 192.661451 36.537851 
L 86.318594 36.537851 
z
" clip-path="url(#pb3e9247f00)" style="fill: #2c7fb8; stroke: #1a1a1a; stroke-width: 0.8; stroke-linejoin: miter"/>
   </g>
   <g id="patch_4">
    <path d="M 86.318594 43.481748 
L 192.661451 43.481748 
L 192.661451 56.961077 
L 86.318594 56.961077 
z
" clip-path="url(#pb3e9247f00)" style="fill: #2c7fb8; stroke: #1a1a1a; stroke-width: 0.8; stroke-linejoin: miter"/>
   </g>
   <g id="patch_5">
    <path d="M 86.318594 63.904973 
L 192.661451 63.904973 
L 192.661451 77.384302 
L 86.318594 77.384302 
z
" clip-path="url(#pb3e9247f00)" style="fill: #2c7fb8; stroke: #1a1a1a; stroke-width: 0.8; stroke-linejoin: miter"/>
   </g>
   <g id="patch_6">
    <path d="M 86.318594 84.328198 
L 86.318594 84.328198 
L 86.318594 97.807527 
L 86.318594 97.807527 
z
" clip-path="url(#pb3e9247f00)" style="fill: #d95f02; stroke: #1a1a1a; stroke-width: 0.8; stroke-linejoin: miter"/>
   </g>
   <g id="patch_7">
    <path d="M 86.318594 104.751423 
L 192.661451 104.751423 
L 192.661451 118.230752 
L 86.318594 118.230752 
z
" clip-path="url(#pb3e9247f00)" style="fill: #2c7fb8; stroke: #1a1a1a; stroke-width: 0.8; stroke-linejoin: miter"/>
   </g>
   <g id="patch_8">
    <path d="M 86.318594 125.174649 
L 192.661451 125.174649 
L 192.661451 138.653977 
L 86.318594 138.653977 
z
" clip-path="url(#pb3e9247f00)" style="fill: #2c7fb8; stroke: #1a1a1a; stroke-width: 0.8; stroke-linejoin: miter"/>
   </g>
   <g id="matplotlib.axis_1">
    <g id="xtick_1">
     <g id="line2d_1">
      <path d="M 86.318594 144.43375 
L 86.318594 17.27875 
" clip-path="url(#pb3e9247f00)" style="fill: none; stroke-dasharray: 2.96,1.28; stroke-dashoffset: 0; stroke: #b0b0b0; stroke-opacity: 0.25; stroke-width: 0.8"/>
     </g>
     <g id="line2d_2">
      <defs>
       <path id="m2d19660f34" d="M 0 0 
L 0 3.5 
" style="stroke: #1a1a1a; stroke-width: 0.8"/>
      </defs>
      <g>
       <use xlink:href="#m2d19660f34" x="86.318594" y="144.43375" style="fill: #1a1a1a; stroke: #1a1a1a; stroke-width: 0.8"/>
      </g>
     </g>
     <g id="text_1">
      <!-- 0.00 -->
      <g style="fill: #1a1a1a" transform="translate(77.412344 157.5125) scale(0.08 -0.08)">
       <defs>
        <path id="DejaVuSerif-30" d="M 2034 219 
Q 2513 219 2750 744 
Q 2988 1269 2988 2328 
Q 2988 3391 2750 3916 
Q 2513 4441 2034 4441 
Q 1556 4441 1318 3916 
Q 1081 3391 1081 2328 
Q 1081 1269 1318 744 
Q 1556 219 2034 219 
z
M 2034 -91 
Q 1275 -91 848 546 
Q 422 1184 422 2328 
Q 422 3475 848 4112 
Q 1275 4750 2034 4750 
Q 2797 4750 3222 4112 
Q 3647 3475 3647 2328 
Q 3647 1184 3222 546 
Q 2797 -91 2034 -91 
z
" transform="scale(0.015625)"/>
        <path id="DejaVuSerif-2e" d="M 603 325 
Q 603 500 722 622 
Q 841 744 1019 744 
Q 1191 744 1312 622 
Q 1434 500 1434 325 
Q 1434 153 1312 31 
Q 1191 -91 1019 -91 
Q 841 -91 722 29 
Q 603 150 603 325 
z
" transform="scale(0.015625)"/>
       </defs>
       <use xlink:href="#DejaVuSerif-30"/>
       <use xlink:href="#DejaVuSerif-2e" transform="translate(63.623047 0)"/>
       <use xlink:href="#DejaVuSerif-30" transform="translate(95.410156 0)"/>
       <use xlink:href="#DejaVuSerif-30" transform="translate(159.033203 0)"/>
      </g>
     </g>
    </g>
    <g id="xtick_2">
     <g id="line2d_3">
      <path d="M 112.904308 144.43375 
L 112.904308 17.27875 
" clip-path="url(#pb3e9247f00)" style="fill: none; stroke-dasharray: 2.96,1.28; stroke-dashoffset: 0; stroke: #b0b0b0; stroke-opacity: 0.25; stroke-width: 0.8"/>
     </g>
     <g id="line2d_4">
      <g>
       <use xlink:href="#m2d19660f34" x="112.904308" y="144.43375" style="fill: #1a1a1a; stroke: #1a1a1a; stroke-width: 0.8"/>
      </g>
     </g>
     <g id="text_2">
      <!-- 0.25 -->
      <g style="fill: #1a1a1a" transform="translate(103.998058 157.5125) scale(0.08 -0.08)">
       <defs>
        <path id="DejaVuSerif-32" d="M 819 3553 
L 469 3553 
L 469 4384 
Q 803 4563 1142 4656 
Q 1481 4750 1806 4750 
Q 2534 4750 2956 4397 
Q 3378 4044 3378 3438 
Q 3378 2753 2422 1800 
Q 2347 1728 2309 1691 
L 1131 513 
L 3078 513 
L 3078 1088 
L 3444 1088 
L 3444 0 
L 434 0 
L 434 341 
L 1850 1753 
Q 2319 2222 2519 2614 
Q 2719 3006 2719 3438 
Q 2719 3909 2473 4175 
Q 2228 4441 1797 4441 
Q 1350 4441 1106 4219 
Q 863 3997 819 3553 
z
" transform="scale(0.015625)"/>
        <path id="DejaVuSerif-35" d="M 3219 4666 
L 3219 4153 
L 1081 4153 
L 1081 2816 
Q 1244 2928 1461 2984 
Q 1678 3041 1947 3041 
Q 2703 3041 3140 2622 
Q 3578 2203 3578 1478 
Q 3578 738 3136 323 
Q 2694 -91 1894 -91 
Q 1572 -91 1234 -12 
Q 897 66 544 225 
L 544 1131 
L 897 1131 
Q 925 688 1179 453 
Q 1434 219 1894 219 
Q 2388 219 2653 544 
Q 2919 869 2919 1478 
Q 2919 2084 2655 2407 
Q 2391 2731 1894 2731 
Q 1613 2731 1398 2631 
Q 1184 2531 1019 2322 
L 750 2322 
L 750 4666 
L 3219 4666 
z
" transform="scale(0.015625)"/>
       </defs>
       <use xlink:href="#DejaVuSerif-30"/>
       <use xlink:href="#DejaVuSerif-2e" transform="translate(63.623047 0)"/>
       <use xlink:href="#DejaVuSerif-32" transform="translate(95.410156 0)"/>
       <use xlink:href="#DejaVuSerif-35" transform="translate(159.033203 0)"/>
      </g>
     </g>
    </g>
    <g id="xtick_3">
     <g id="line2d_5">
      <path d="M 139.490022 144.43375 
L 139.490022 17.27875 
" clip-path="url(#pb3e9247f00)" style="fill: none; stroke-dasharray: 2.96,1.28; stroke-dashoffset: 0; stroke: #b0b0b0; stroke-opacity: 0.25; stroke-width: 0.8"/>
     </g>
     <g id="line2d_6">
      <g>
       <use xlink:href="#m2d19660f34" x="139.490022" y="144.43375" style="fill: #1a1a1a; stroke: #1a1a1a; stroke-width: 0.8"/>
      </g>
     </g>
     <g id="text_3">
      <!-- 0.50 -->
      <g style="fill: #1a1a1a" transform="translate(130.583772 157.5125) scale(0.08 -0.08)">
       <use xlink:href="#DejaVuSerif-30"/>
       <use xlink:href="#DejaVuSerif-2e" transform="translate(63.623047 0)"/>
       <use xlink:href="#DejaVuSerif-35" transform="translate(95.410156 0)"/>
       <use xlink:href="#DejaVuSerif-30" transform="translate(159.033203 0)"/>
      </g>
     </g>
    </g>
    <g id="xtick_4">
     <g id="line2d_7">
      <path d="M 166.075737 144.43375 
L 166.075737 17.27875 
" clip-path="url(#pb3e9247f00)" style="fill: none; stroke-dasharray: 2.96,1.28; stroke-dashoffset: 0; stroke: #b0b0b0; stroke-opacity: 0.25; stroke-width: 0.8"/>
     </g>
     <g id="line2d_8">
      <g>
       <use xlink:href="#m2d19660f34" x="166.075737" y="144.43375" style="fill: #1a1a1a; stroke: #1a1a1a; stroke-width: 0.8"/>
      </g>
     </g>
     <g id="text_4">
      <!-- 0.75 -->
      <g style="fill: #1a1a1a" transform="translate(157.169487 157.5125) scale(0.08 -0.08)">
       <defs>
        <path id="DejaVuSerif-37" d="M 3609 4347 
L 1784 0 
L 1319 0 
L 3059 4153 
L 903 4153 
L 903 3578 
L 538 3578 
L 538 4666 
L 3609 4666 
L 3609 4347 
z
" transform="scale(0.015625)"/>
       </defs>
       <use xlink:href="#DejaVuSerif-30"/>
       <use xlink:href="#DejaVuSerif-2e" transform="translate(63.623047 0)"/>
       <use xlink:href="#DejaVuSerif-37" transform="translate(95.410156 0)"/>
       <use xlink:href="#DejaVuSerif-35" transform="translate(159.033203 0)"/>
      </g>
     </g>
    </g>
    <g id="xtick_5">
     <g id="line2d_9">
      <path d="M 192.661451 144.43375 
L 192.661451 17.27875 
" clip-path="url(#pb3e9247f00)" style="fill: none; stroke-dasharray: 2.96,1.28; stroke-dashoffset: 0; stroke: #b0b0b0; stroke-opacity: 0.25; stroke-width: 0.8"/>
     </g>
     <g id="line2d_10">
      <g>
       <use xlink:href="#m2d19660f34" x="192.661451" y="144.43375" style="fill: #1a1a1a; stroke: #1a1a1a; stroke-width: 0.8"/>
      </g>
     </g>
     <g id="text_5">
      <!-- 1.00 -->
      <g style="fill: #1a1a1a" transform="translate(183.755201 157.5125) scale(0.08 -0.08)">
       <defs>
        <path id="DejaVuSerif-31" d="M 909 0 
L 909 331 
L 1722 331 
L 1722 4213 
L 781 3603 
L 781 4013 
L 1919 4750 
L 2350 4750 
L 2350 331 
L 3163 331 
L 3163 0 
L 909 0 
z
" transform="scale(0.015625)"/>
       </defs>
       <use xlink:href="#DejaVuSerif-31"/>
       <use xlink:href="#DejaVuSerif-2e" transform="translate(63.623047 0)"/>
       <use xlink:href="#DejaVuSerif-30" transform="translate(95.410156 0)"/>
       <use xlink:href="#DejaVuSerif-30" transform="translate(159.033203 0)"/>
      </g>
     </g>
    </g>
    <g id="xtick_6">
     <g id="line2d_11">
      <path d="M 219.247165 144.43375 
L 219.247165 17.27875 
" clip-path="url(#pb3e9247f00)" style="fill: none; stroke-dasharray: 2.96,1.28; stroke-dashoffset: 0; stroke: #b0b0b0; stroke-opacity: 0.25; stroke-width: 0.8"/>
     </g>
     <g id="line2d_12">
      <g>
       <use xlink:href="#m2d19660f34" x="219.247165" y="144.43375" style="fill: #1a1a1a; stroke: #1a1a1a; stroke-width: 0.8"/>
      </g>
     </g>
     <g id="text_6">
      <!-- 1.25 -->
      <g style="fill: #1a1a1a" transform="translate(210.340915 157.5125) scale(0.08 -0.08)">
       <use xlink:href="#DejaVuSerif-31"/>
       <use xlink:href="#DejaVuSerif-2e" transform="translate(63.623047 0)"/>
       <use xlink:href="#DejaVuSerif-32" transform="translate(95.410156 0)"/>
       <use xlink:href="#DejaVuSerif-35" transform="translate(159.033203 0)"/>
      </g>
     </g>
    </g>
    <g id="text_7">
     <!-- labeled failed rollouts -->
     <g style="fill: #1a1a1a" transform="translate(116.540469 169.255) scale(0.08 -0.08)">
      <defs>
       <path id="DejaVuSerif-6c" d="M 1313 331 
L 1856 331 
L 1856 0 
L 184 0 
L 184 331 
L 738 331 
L 738 4531 
L 184 4531 
L 184 4863 
L 1313 4863 
L 1313 331 
z
" transform="scale(0.015625)"/>
       <path id="DejaVuSerif-61" d="M 2547 1044 
L 2547 1747 
L 1806 1747 
Q 1378 1747 1168 1562 
Q 959 1378 959 997 
Q 959 650 1171 447 
Q 1384 244 1747 244 
Q 2106 244 2326 466 
Q 2547 688 2547 1044 
z
M 3122 2075 
L 3122 331 
L 3634 331 
L 3634 0 
L 2547 0 
L 2547 359 
Q 2356 128 2106 18 
Q 1856 -91 1522 -91 
Q 969 -91 644 203 
Q 319 497 319 997 
Q 319 1513 691 1797 
Q 1063 2081 1741 2081 
L 2547 2081 
L 2547 2309 
Q 2547 2688 2317 2895 
Q 2088 3103 1672 3103 
Q 1328 3103 1125 2947 
Q 922 2791 872 2484 
L 575 2484 
L 575 3156 
Q 875 3284 1158 3348 
Q 1441 3413 1709 3413 
Q 2400 3413 2761 3070 
Q 3122 2728 3122 2075 
z
" transform="scale(0.015625)"/>
       <path id="DejaVuSerif-62" d="M 738 331 
L 738 4531 
L 184 4531 
L 184 4863 
L 1313 4863 
L 1313 2803 
Q 1481 3116 1742 3264 
Q 2003 3413 2388 3413 
Q 3000 3413 3387 2928 
Q 3775 2444 3775 1663 
Q 3775 881 3387 395 
Q 3000 -91 2388 -91 
Q 2003 -91 1742 57 
Q 1481 206 1313 519 
L 1313 0 
L 184 0 
L 184 331 
L 738 331 
z
M 1313 1497 
Q 1313 897 1542 583 
Q 1772 269 2209 269 
Q 2650 269 2876 622 
Q 3103 975 3103 1663 
Q 3103 2353 2876 2703 
Q 2650 3053 2209 3053 
Q 1772 3053 1542 2737 
Q 1313 2422 1313 1825 
L 1313 1497 
z
" transform="scale(0.015625)"/>
       <path id="DejaVuSerif-65" d="M 3469 1600 
L 991 1600 
L 991 1575 
Q 991 903 1244 561 
Q 1497 219 1991 219 
Q 2369 219 2611 417 
Q 2853 616 2950 1006 
L 3413 1006 
Q 3275 459 2904 184 
Q 2534 -91 1931 -91 
Q 1203 -91 761 389 
Q 319 869 319 1663 
Q 319 2450 753 2931 
Q 1188 3413 1894 3413 
Q 2647 3413 3050 2948 
Q 3453 2484 3469 1600 
z
M 2791 1931 
Q 2772 2513 2545 2808 
Q 2319 3103 1894 3103 
Q 1497 3103 1269 2806 
Q 1041 2509 991 1931 
L 2791 1931 
z
" transform="scale(0.015625)"/>
       <path id="DejaVuSerif-64" d="M 3359 331 
L 3909 331 
L 3909 0 
L 2784 0 
L 2784 519 
Q 2616 206 2355 57 
Q 2094 -91 1709 -91 
Q 1097 -91 708 395 
Q 319 881 319 1663 
Q 319 2444 706 2928 
Q 1094 3413 1709 3413 
Q 2094 3413 2355 3264 
Q 2616 3116 2784 2803 
L 2784 4531 
L 2241 4531 
L 2241 4863 
L 3359 4863 
L 3359 331 
z
M 2784 1497 
L 2784 1825 
Q 2784 2422 2554 2737 
Q 2325 3053 1888 3053 
Q 1444 3053 1217 2703 
Q 991 2353 991 1663 
Q 991 975 1217 622 
Q 1444 269 1888 269 
Q 2325 269 2554 583 
Q 2784 897 2784 1497 
z
" transform="scale(0.015625)"/>
       <path id="DejaVuSerif-20" transform="scale(0.015625)"/>
       <path id="DejaVuSerif-66" d="M 2753 4078 
L 2450 4078 
Q 2447 4313 2317 4434 
Q 2188 4556 1941 4556 
Q 1619 4556 1487 4379 
Q 1356 4203 1356 3750 
L 1356 3322 
L 2284 3322 
L 2284 2988 
L 1356 2988 
L 1356 331 
L 2094 331 
L 2094 0 
L 231 0 
L 231 331 
L 781 331 
L 781 2988 
L 231 2988 
L 231 3322 
L 781 3322 
L 781 3738 
Q 781 4294 1070 4578 
Q 1359 4863 1919 4863 
Q 2128 4863 2337 4825 
Q 2547 4788 2753 4709 
L 2753 4078 
z
" transform="scale(0.015625)"/>
       <path id="DejaVuSerif-69" d="M 622 4353 
Q 622 4497 726 4603 
Q 831 4709 978 4709 
Q 1122 4709 1226 4603 
Q 1331 4497 1331 4353 
Q 1331 4206 1228 4103 
Q 1125 4000 978 4000 
Q 831 4000 726 4103 
Q 622 4206 622 4353 
z
M 1356 331 
L 1900 331 
L 1900 0 
L 231 0 
L 231 331 
L 781 331 
L 781 2988 
L 231 2988 
L 231 3322 
L 1356 3322 
L 1356 331 
z
" transform="scale(0.015625)"/>
       <path id="DejaVuSerif-72" d="M 3059 3328 
L 3059 2497 
L 2728 2497 
Q 2713 2744 2591 2866 
Q 2469 2988 2234 2988 
Q 1809 2988 1582 2694 
Q 1356 2400 1356 1850 
L 1356 331 
L 2022 331 
L 2022 0 
L 263 0 
L 263 331 
L 781 331 
L 781 2994 
L 231 2994 
L 231 3322 
L 1356 3322 
L 1356 2731 
Q 1525 3078 1790 3245 
Q 2056 3413 2438 3413 
Q 2578 3413 2733 3391 
Q 2888 3369 3059 3328 
z
" transform="scale(0.015625)"/>
       <path id="DejaVuSerif-6f" d="M 1925 219 
Q 2388 219 2623 584 
Q 2859 950 2859 1663 
Q 2859 2375 2623 2739 
Q 2388 3103 1925 3103 
Q 1463 3103 1227 2739 
Q 991 2375 991 1663 
Q 991 950 1228 584 
Q 1466 219 1925 219 
z
M 1925 -91 
Q 1200 -91 759 389 
Q 319 869 319 1663 
Q 319 2456 758 2934 
Q 1197 3413 1925 3413 
Q 2653 3413 3092 2934 
Q 3531 2456 3531 1663 
Q 3531 869 3092 389 
Q 2653 -91 1925 -91 
z
" transform="scale(0.015625)"/>
       <path id="DejaVuSerif-75" d="M 2266 3322 
L 3341 3322 
L 3341 331 
L 3884 331 
L 3884 0 
L 2766 0 
L 2766 588 
Q 2606 256 2353 82 
Q 2100 -91 1766 -91 
Q 1213 -91 952 223 
Q 691 538 691 1209 
L 691 2988 
L 172 2988 
L 172 3322 
L 1269 3322 
L 1269 1388 
Q 1269 781 1417 556 
Q 1566 331 1947 331 
Q 2347 331 2556 625 
Q 2766 919 2766 1478 
L 2766 2988 
L 2266 2988 
L 2266 3322 
z
" transform="scale(0.015625)"/>
       <path id="DejaVuSerif-74" d="M 691 2988 
L 184 2988 
L 184 3322 
L 691 3322 
L 691 4353 
L 1269 4353 
L 1269 3322 
L 2350 3322 
L 2350 2988 
L 1269 2988 
L 1269 878 
Q 1269 456 1350 337 
Q 1431 219 1650 219 
Q 1875 219 1978 351 
Q 2081 484 2088 781 
L 2522 781 
Q 2497 328 2275 118 
Q 2053 -91 1600 -91 
Q 1103 -91 897 129 
Q 691 350 691 878 
L 691 2988 
z
" transform="scale(0.015625)"/>
       <path id="DejaVuSerif-73" d="M 359 184 
L 359 959 
L 691 959 
Q 703 588 923 403 
Q 1144 219 1575 219 
Q 1963 219 2166 364 
Q 2369 509 2369 788 
Q 2369 1006 2220 1140 
Q 2072 1275 1594 1428 
L 1178 1569 
Q 750 1706 558 1912 
Q 366 2119 366 2438 
Q 366 2894 700 3153 
Q 1034 3413 1625 3413 
Q 1888 3413 2178 3344 
Q 2469 3275 2778 3144 
L 2778 2419 
L 2447 2419 
Q 2434 2741 2221 2922 
Q 2009 3103 1644 3103 
Q 1281 3103 1095 2975 
Q 909 2847 909 2591 
Q 909 2381 1050 2254 
Q 1191 2128 1613 1997 
L 2069 1856 
Q 2541 1709 2748 1489 
Q 2956 1269 2956 922 
Q 2956 450 2595 179 
Q 2234 -91 1600 -91 
Q 1278 -91 972 -22 
Q 666 47 359 184 
z
" transform="scale(0.015625)"/>
      </defs>
      <use xlink:href="#DejaVuSerif-6c"/>
      <use xlink:href="#DejaVuSerif-61" transform="translate(31.982422 0)"/>
      <use xlink:href="#DejaVuSerif-62" transform="translate(91.601562 0)"/>
      <use xlink:href="#DejaVuSerif-65" transform="translate(155.615234 0)"/>
      <use xlink:href="#DejaVuSerif-6c" transform="translate(214.794922 0)"/>
      <use xlink:href="#DejaVuSerif-65" transform="translate(246.777344 0)"/>
      <use xlink:href="#DejaVuSerif-64" transform="translate(305.957031 0)"/>
      <use xlink:href="#DejaVuSerif-20" transform="translate(369.970703 0)"/>
      <use xlink:href="#DejaVuSerif-66" transform="translate(401.757812 0)"/>
      <use xlink:href="#DejaVuSerif-61" transform="translate(438.769531 0)"/>
      <use xlink:href="#DejaVuSerif-69" transform="translate(498.388672 0)"/>
      <use xlink:href="#DejaVuSerif-6c" transform="translate(530.371094 0)"/>
      <use xlink:href="#DejaVuSerif-65" transform="translate(562.353516 0)"/>
      <use xlink:href="#DejaVuSerif-64" transform="translate(621.533203 0)"/>
      <use xlink:href="#DejaVuSerif-20" transform="translate(685.546875 0)"/>
      <use xlink:href="#DejaVuSerif-72" transform="translate(717.333984 0)"/>
      <use xlink:href="#DejaVuSerif-6f" transform="translate(765.136719 0)"/>
      <use xlink:href="#DejaVuSerif-6c" transform="translate(825.341797 0)"/>
      <use xlink:href="#DejaVuSerif-6c" transform="translate(857.324219 0)"/>
      <use xlink:href="#DejaVuSerif-6f" transform="translate(889.306641 0)"/>
      <use xlink:href="#DejaVuSerif-75" transform="translate(949.511719 0)"/>
      <use xlink:href="#DejaVuSerif-74" transform="translate(1013.916016 0)"/>
      <use xlink:href="#DejaVuSerif-73" transform="translate(1054.101562 0)"/>
     </g>
    </g>
   </g>
   <g id="matplotlib.axis_2">
    <g id="ytick_1">
     <g id="line2d_13">
      <defs>
       <path id="m38b3dc1852" d="M 0 0 
L -3.5 0 
" style="stroke: #1a1a1a; stroke-width: 0.8"/>
      </defs>
      <g>
       <use xlink:href="#m38b3dc1852" x="86.318594" y="29.798187" style="fill: #1a1a1a; stroke: #1a1a1a; stroke-width: 0.8"/>
      </g>
     </g>
     <g id="text_8">
      <!-- trajectory overshoot -->
      <g style="fill: #1a1a1a" transform="translate(7.2 32.45764) scale(0.07 -0.07)">
       <defs>
        <path id="DejaVuSerif-6a" d="M 641 4353 
Q 641 4497 745 4603 
Q 850 4709 997 4709 
Q 1141 4709 1245 4603 
Q 1350 4497 1350 4353 
Q 1350 4206 1248 4103 
Q 1147 4000 997 4000 
Q 850 4000 745 4103 
Q 641 4206 641 4353 
z
M 781 2988 
L 238 2988 
L 238 3322 
L 1356 3322 
L 1356 -325 
Q 1356 -838 1051 -1130 
Q 747 -1422 213 -1422 
Q -13 -1422 -217 -1370 
Q -422 -1319 -616 -1216 
L -616 -531 
L -319 -531 
Q -297 -831 -164 -972 
Q -31 -1113 225 -1113 
Q 509 -1113 645 -920 
Q 781 -728 781 -325 
L 781 2988 
z
" transform="scale(0.015625)"/>
        <path id="DejaVuSerif-63" d="M 3291 997 
Q 3169 466 2822 187 
Q 2475 -91 1925 -91 
Q 1200 -91 759 389 
Q 319 869 319 1663 
Q 319 2459 759 2936 
Q 1200 3413 1925 3413 
Q 2241 3413 2553 3339 
Q 2866 3266 3181 3116 
L 3181 2266 
L 2847 2266 
Q 2781 2703 2561 2903 
Q 2341 3103 1931 3103 
Q 1466 3103 1228 2742 
Q 991 2381 991 1663 
Q 991 944 1227 581 
Q 1463 219 1931 219 
Q 2303 219 2525 412 
Q 2747 606 2828 997 
L 3291 997 
z
" transform="scale(0.015625)"/>
        <path id="DejaVuSerif-79" d="M 1381 -609 
L 1600 -56 
L 359 2988 
L -19 2988 
L -19 3322 
L 1509 3322 
L 1509 2988 
L 978 2988 
L 1913 703 
L 2847 2988 
L 2350 2988 
L 2350 3322 
L 3597 3322 
L 3597 2988 
L 3225 2988 
L 1703 -750 
Q 1547 -1138 1356 -1280 
Q 1166 -1422 819 -1422 
Q 672 -1422 517 -1397 
Q 363 -1372 206 -1325 
L 206 -691 
L 500 -691 
Q 519 -903 608 -995 
Q 697 -1088 884 -1088 
Q 1056 -1088 1161 -992 
Q 1266 -897 1381 -609 
z
" transform="scale(0.015625)"/>
        <path id="DejaVuSerif-76" d="M 1581 0 
L 359 2988 
L -19 2988 
L -19 3322 
L 1509 3322 
L 1509 2988 
L 978 2988 
L 1913 703 
L 2847 2988 
L 2350 2988 
L 2350 3322 
L 3597 3322 
L 3597 2988 
L 3225 2988 
L 2003 0 
L 1581 0 
z
" transform="scale(0.015625)"/>
        <path id="DejaVuSerif-68" d="M 263 0 
L 263 331 
L 781 331 
L 781 4531 
L 231 4531 
L 231 4863 
L 1356 4863 
L 1356 2731 
Q 1516 3069 1770 3241 
Q 2025 3413 2363 3413 
Q 2913 3413 3172 3097 
Q 3431 2781 3431 2113 
L 3431 331 
L 3944 331 
L 3944 0 
L 2356 0 
L 2356 331 
L 2853 331 
L 2853 1931 
Q 2853 2541 2704 2764 
Q 2556 2988 2175 2988 
Q 1775 2988 1565 2697 
Q 1356 2406 1356 1850 
L 1356 331 
L 1856 331 
L 1856 0 
L 263 0 
z
" transform="scale(0.015625)"/>
       </defs>
       <use xlink:href="#DejaVuSerif-74"/>
       <use xlink:href="#DejaVuSerif-72" transform="translate(40.185547 0)"/>
       <use xlink:href="#DejaVuSerif-61" transform="translate(87.988281 0)"/>
       <use xlink:href="#DejaVuSerif-6a" transform="translate(147.607422 0)"/>
       <use xlink:href="#DejaVuSerif-65" transform="translate(178.613281 0)"/>
       <use xlink:href="#DejaVuSerif-63" transform="translate(237.792969 0)"/>
       <use xlink:href="#DejaVuSerif-74" transform="translate(293.798828 0)"/>
       <use xlink:href="#DejaVuSerif-6f" transform="translate(333.984375 0)"/>
       <use xlink:href="#DejaVuSerif-72" transform="translate(394.189453 0)"/>
       <use xlink:href="#DejaVuSerif-79" transform="translate(441.992188 0)"/>
       <use xlink:href="#DejaVuSerif-20" transform="translate(498.486328 0)"/>
       <use xlink:href="#DejaVuSerif-6f" transform="translate(530.273438 0)"/>
       <use xlink:href="#DejaVuSerif-76" transform="translate(590.478516 0)"/>
       <use xlink:href="#DejaVuSerif-65" transform="translate(646.972656 0)"/>
       <use xlink:href="#DejaVuSerif-72" transform="translate(706.152344 0)"/>
       <use xlink:href="#DejaVuSerif-73" transform="translate(753.955078 0)"/>
       <use xlink:href="#DejaVuSerif-68" transform="translate(805.273438 0)"/>
       <use xlink:href="#DejaVuSerif-6f" transform="translate(869.677734 0)"/>
       <use xlink:href="#DejaVuSerif-6f" transform="translate(929.882812 0)"/>
       <use xlink:href="#DejaVuSerif-74" transform="translate(990.087891 0)"/>
      </g>
     </g>
    </g>
    <g id="ytick_2">
     <g id="line2d_14">
      <g>
       <use xlink:href="#m38b3dc1852" x="86.318594" y="50.221412" style="fill: #1a1a1a; stroke: #1a1a1a; stroke-width: 0.8"/>
      </g>
     </g>
     <g id="text_9">
      <!-- gripper slip -->
      <g style="fill: #1a1a1a" transform="translate(38.02625 52.880865) scale(0.07 -0.07)">
       <defs>
        <path id="DejaVuSerif-67" d="M 3359 2988 
L 3359 72 
Q 3359 -644 2965 -1033 
Q 2572 -1422 1844 -1422 
Q 1516 -1422 1216 -1362 
Q 916 -1303 641 -1184 
L 641 -488 
L 941 -488 
Q 997 -813 1206 -963 
Q 1416 -1113 1806 -1113 
Q 2313 -1113 2548 -827 
Q 2784 -541 2784 72 
L 2784 519 
Q 2616 206 2355 57 
Q 2094 -91 1709 -91 
Q 1097 -91 708 395 
Q 319 881 319 1663 
Q 319 2444 706 2928 
Q 1094 3413 1709 3413 
Q 2094 3413 2355 3264 
Q 2616 3116 2784 2803 
L 2784 3322 
L 3909 3322 
L 3909 2988 
L 3359 2988 
z
M 2784 1825 
Q 2784 2422 2554 2737 
Q 2325 3053 1888 3053 
Q 1444 3053 1217 2703 
Q 991 2353 991 1663 
Q 991 975 1217 622 
Q 1444 269 1888 269 
Q 2325 269 2554 583 
Q 2784 897 2784 1497 
L 2784 1825 
z
" transform="scale(0.015625)"/>
        <path id="DejaVuSerif-70" d="M 1313 1825 
L 1313 1497 
Q 1313 897 1542 583 
Q 1772 269 2209 269 
Q 2650 269 2876 622 
Q 3103 975 3103 1663 
Q 3103 2353 2876 2703 
Q 2650 3053 2209 3053 
Q 1772 3053 1542 2737 
Q 1313 2422 1313 1825 
z
M 738 2988 
L 184 2988 
L 184 3322 
L 1313 3322 
L 1313 2803 
Q 1481 3116 1742 3264 
Q 2003 3413 2388 3413 
Q 3000 3413 3387 2928 
Q 3775 2444 3775 1663 
Q 3775 881 3387 395 
Q 3000 -91 2388 -91 
Q 2003 -91 1742 57 
Q 1481 206 1313 519 
L 1313 -997 
L 1856 -997 
L 1856 -1331 
L 184 -1331 
L 184 -997 
L 738 -997 
L 738 2988 
z
" transform="scale(0.015625)"/>
       </defs>
       <use xlink:href="#DejaVuSerif-67"/>
       <use xlink:href="#DejaVuSerif-72" transform="translate(64.013672 0)"/>
       <use xlink:href="#DejaVuSerif-69" transform="translate(111.816406 0)"/>
       <use xlink:href="#DejaVuSerif-70" transform="translate(143.798828 0)"/>
       <use xlink:href="#DejaVuSerif-70" transform="translate(207.8125 0)"/>
       <use xlink:href="#DejaVuSerif-65" transform="translate(271.826172 0)"/>
       <use xlink:href="#DejaVuSerif-72" transform="translate(331.005859 0)"/>
       <use xlink:href="#DejaVuSerif-20" transform="translate(378.808594 0)"/>
       <use xlink:href="#DejaVuSerif-73" transform="translate(410.595703 0)"/>
       <use xlink:href="#DejaVuSerif-6c" transform="translate(461.914062 0)"/>
       <use xlink:href="#DejaVuSerif-69" transform="translate(493.896484 0)"/>
       <use xlink:href="#DejaVuSerif-70" transform="translate(525.878906 0)"/>
      </g>
     </g>
    </g>
    <g id="ytick_3">
     <g id="line2d_15">
      <g>
       <use xlink:href="#m38b3dc1852" x="86.318594" y="70.644637" style="fill: #1a1a1a; stroke: #1a1a1a; stroke-width: 0.8"/>
      </g>
     </g>
     <g id="text_10">
      <!-- timeout -->
      <g style="fill: #1a1a1a" transform="translate(51.949688 73.304091) scale(0.07 -0.07)">
       <defs>
        <path id="DejaVuSerif-6d" d="M 3316 2675 
Q 3481 3041 3739 3227 
Q 3997 3413 4341 3413 
Q 4863 3413 5119 3089 
Q 5375 2766 5375 2113 
L 5375 331 
L 5894 331 
L 5894 0 
L 4300 0 
L 4300 331 
L 4800 331 
L 4800 2047 
Q 4800 2556 4650 2772 
Q 4500 2988 4153 2988 
Q 3769 2988 3567 2697 
Q 3366 2406 3366 1850 
L 3366 331 
L 3866 331 
L 3866 0 
L 2291 0 
L 2291 331 
L 2791 331 
L 2791 2069 
Q 2791 2566 2641 2777 
Q 2491 2988 2144 2988 
Q 1759 2988 1557 2697 
Q 1356 2406 1356 1850 
L 1356 331 
L 1856 331 
L 1856 0 
L 263 0 
L 263 331 
L 781 331 
L 781 2994 
L 231 2994 
L 231 3322 
L 1356 3322 
L 1356 2731 
Q 1516 3063 1762 3238 
Q 2009 3413 2322 3413 
Q 2709 3413 2968 3220 
Q 3228 3028 3316 2675 
z
" transform="scale(0.015625)"/>
       </defs>
       <use xlink:href="#DejaVuSerif-74"/>
       <use xlink:href="#DejaVuSerif-69" transform="translate(40.185547 0)"/>
       <use xlink:href="#DejaVuSerif-6d" transform="translate(72.167969 0)"/>
       <use xlink:href="#DejaVuSerif-65" transform="translate(166.992188 0)"/>
       <use xlink:href="#DejaVuSerif-6f" transform="translate(226.171875 0)"/>
       <use xlink:href="#DejaVuSerif-75" transform="translate(286.376953 0)"/>
       <use xlink:href="#DejaVuSerif-74" transform="translate(350.78125 0)"/>
      </g>
     </g>
    </g>
    <g id="ytick_4">
     <g id="line2d_16">
      <g>
       <use xlink:href="#m38b3dc1852" x="86.318594" y="91.067863" style="fill: #1a1a1a; stroke: #1a1a1a; stroke-width: 0.8"/>
      </g>
     </g>
     <g id="text_11">
      <!-- wrong object -->
      <g style="fill: #1a1a1a" transform="translate(32.81125 93.727316) scale(0.07 -0.07)">
       <defs>
        <path id="DejaVuSerif-77" d="M 3072 3322 
L 3922 728 
L 4672 2988 
L 4191 2988 
L 4191 3322 
L 5394 3322 
L 5394 2988 
L 5025 2988 
L 4038 0 
L 3559 0 
L 2741 2484 
L 1919 0 
L 1459 0 
L 475 2988 
L 103 2988 
L 103 3322 
L 1606 3322 
L 1606 2988 
L 1069 2988 
L 1813 728 
L 2669 3322 
L 3072 3322 
z
" transform="scale(0.015625)"/>
        <path id="DejaVuSerif-6e" d="M 263 0 
L 263 331 
L 781 331 
L 781 2988 
L 231 2988 
L 231 3322 
L 1356 3322 
L 1356 2731 
Q 1516 3069 1770 3241 
Q 2025 3413 2363 3413 
Q 2913 3413 3172 3097 
Q 3431 2781 3431 2113 
L 3431 331 
L 3944 331 
L 3944 0 
L 2356 0 
L 2356 331 
L 2853 331 
L 2853 1931 
Q 2853 2541 2703 2767 
Q 2553 2994 2175 2994 
Q 1775 2994 1565 2701 
Q 1356 2409 1356 1850 
L 1356 331 
L 1856 331 
L 1856 0 
L 263 0 
z
" transform="scale(0.015625)"/>
       </defs>
       <use xlink:href="#DejaVuSerif-77"/>
       <use xlink:href="#DejaVuSerif-72" transform="translate(85.595703 0)"/>
       <use xlink:href="#DejaVuSerif-6f" transform="translate(133.398438 0)"/>
       <use xlink:href="#DejaVuSerif-6e" transform="translate(193.603516 0)"/>
       <use xlink:href="#DejaVuSerif-67" transform="translate(258.007812 0)"/>
       <use xlink:href="#DejaVuSerif-20" transform="translate(322.021484 0)"/>
       <use xlink:href="#DejaVuSerif-6f" transform="translate(353.808594 0)"/>
       <use xlink:href="#DejaVuSerif-62" transform="translate(414.013672 0)"/>
       <use xlink:href="#DejaVuSerif-6a" transform="translate(478.027344 0)"/>
       <use xlink:href="#DejaVuSerif-65" transform="translate(509.033203 0)"/>
       <use xlink:href="#DejaVuSerif-63" transform="translate(568.212891 0)"/>
       <use xlink:href="#DejaVuSerif-74" transform="translate(624.21875 0)"/>
      </g>
     </g>
    </g>
    <g id="ytick_5">
     <g id="line2d_17">
      <g>
       <use xlink:href="#m38b3dc1852" x="86.318594" y="111.491088" style="fill: #1a1a1a; stroke: #1a1a1a; stroke-width: 0.8"/>
      </g>
     </g>
     <g id="text_12">
      <!-- premature release -->
      <g style="fill: #1a1a1a" transform="translate(13.722031 114.150541) scale(0.07 -0.07)">
       <use xlink:href="#DejaVuSerif-70"/>
       <use xlink:href="#DejaVuSerif-72" transform="translate(64.013672 0)"/>
       <use xlink:href="#DejaVuSerif-65" transform="translate(111.816406 0)"/>
       <use xlink:href="#DejaVuSerif-6d" transform="translate(170.996094 0)"/>
       <use xlink:href="#DejaVuSerif-61" transform="translate(265.820312 0)"/>
       <use xlink:href="#DejaVuSerif-74" transform="translate(325.439453 0)"/>
       <use xlink:href="#DejaVuSerif-75" transform="translate(365.625 0)"/>
       <use xlink:href="#DejaVuSerif-72" transform="translate(430.029297 0)"/>
       <use xlink:href="#DejaVuSerif-65" transform="translate(477.832031 0)"/>
       <use xlink:href="#DejaVuSerif-20" transform="translate(537.011719 0)"/>
       <use xlink:href="#DejaVuSerif-72" transform="translate(568.798828 0)"/>
       <use xlink:href="#DejaVuSerif-65" transform="translate(616.601562 0)"/>
       <use xlink:href="#DejaVuSerif-6c" transform="translate(675.78125 0)"/>
       <use xlink:href="#DejaVuSerif-65" transform="translate(707.763672 0)"/>
       <use xlink:href="#DejaVuSerif-61" transform="translate(766.943359 0)"/>
       <use xlink:href="#DejaVuSerif-73" transform="translate(826.5625 0)"/>
       <use xlink:href="#DejaVuSerif-65" transform="translate(877.880859 0)"/>
      </g>
     </g>
    </g>
    <g id="ytick_6">
     <g id="line2d_18">
      <g>
       <use xlink:href="#m38b3dc1852" x="86.318594" y="131.914313" style="fill: #1a1a1a; stroke: #1a1a1a; stroke-width: 0.8"/>
      </g>
     </g>
     <g id="text_13">
      <!-- drift -->
      <g style="fill: #1a1a1a" transform="translate(63.848594 134.573766) scale(0.07 -0.07)">
       <use xlink:href="#DejaVuSerif-64"/>
       <use xlink:href="#DejaVuSerif-72" transform="translate(64.013672 0)"/>
       <use xlink:href="#DejaVuSerif-69" transform="translate(111.816406 0)"/>
       <use xlink:href="#DejaVuSerif-66" transform="translate(143.798828 0)"/>
       <use xlink:href="#DejaVuSerif-74" transform="translate(180.810547 0)"/>
      </g>
     </g>
    </g>
   </g>
   <g id="patch_9">
    <path d="M 86.318594 144.43375 
L 86.318594 17.27875 
" style="fill: none; stroke: #1a1a1a; stroke-width: 0.8; stroke-linejoin: miter; stroke-linecap: square"/>
   </g>
   <g id="patch_10">
    <path d="M 86.318594 144.43375 
L 235.198594 144.43375 
" style="fill: none; stroke: #1a1a1a; stroke-width: 0.8; stroke-linejoin: miter; stroke-linecap: square"/>
   </g>
   <g id="text_14">
    <!-- 1 (20%) -->
    <g style="fill: #1a1a1a" transform="translate(196.915165 31.453812) scale(0.06 -0.06)">
     <defs>
      <path id="DejaVuSerif-28" d="M 2041 -997 
Q 1281 -656 893 83 
Q 506 822 506 1931 
Q 506 3044 893 3783 
Q 1281 4522 2041 4863 
L 2041 4556 
Q 1559 4225 1350 3623 
Q 1141 3022 1141 1931 
Q 1141 844 1350 242 
Q 1559 -359 2041 -691 
L 2041 -997 
z
" transform="scale(0.015625)"/>
      <path id="DejaVuSerif-25" d="M 1434 4459 
Q 1159 4459 1004 4200 
Q 850 3941 850 3475 
Q 850 3016 1008 2753 
Q 1166 2491 1434 2491 
Q 1700 2491 1854 2752 
Q 2009 3013 2009 3475 
Q 2009 3938 1854 4198 
Q 1700 4459 1434 4459 
z
M 4653 2169 
Q 4381 2169 4226 1906 
Q 4072 1644 4072 1178 
Q 4072 719 4228 458 
Q 4384 197 4653 197 
Q 4922 197 5075 458 
Q 5228 719 5228 1178 
Q 5228 1641 5073 1905 
Q 4919 2169 4653 2169 
z
M 4653 2450 
Q 5147 2450 5437 2106 
Q 5728 1763 5728 1178 
Q 5728 594 5436 251 
Q 5144 -91 4653 -91 
Q 4153 -91 3862 251 
Q 3572 594 3572 1178 
Q 3572 1766 3864 2108 
Q 4156 2450 4653 2450 
z
M 4263 4750 
L 4738 4750 
L 1819 -91 
L 1344 -91 
L 4263 4750 
z
M 1428 4750 
Q 1922 4750 2215 4408 
Q 2509 4066 2509 3481 
Q 2509 2891 2217 2550 
Q 1925 2209 1428 2209 
Q 931 2209 642 2551 
Q 353 2894 353 3481 
Q 353 4063 643 4406 
Q 934 4750 1428 4750 
z
" transform="scale(0.015625)"/>
      <path id="DejaVuSerif-29" d="M 453 -997 
L 453 -691 
Q 934 -359 1145 242 
Q 1356 844 1356 1931 
Q 1356 3022 1145 3623 
Q 934 4225 453 4556 
L 453 4863 
Q 1216 4522 1603 3783 
Q 1991 3044 1991 1931 
Q 1991 822 1603 83 
Q 1216 -656 453 -997 
z
" transform="scale(0.015625)"/>
     </defs>
     <use xlink:href="#DejaVuSerif-31"/>
     <use xlink:href="#DejaVuSerif-20" transform="translate(63.623047 0)"/>
     <use xlink:href="#DejaVuSerif-28" transform="translate(95.410156 0)"/>
     <use xlink:href="#DejaVuSerif-32" transform="translate(134.423828 0)"/>
     <use xlink:href="#DejaVuSerif-30" transform="translate(198.046875 0)"/>
     <use xlink:href="#DejaVuSerif-25" transform="translate(261.669922 0)"/>
     <use xlink:href="#DejaVuSerif-29" transform="translate(356.689453 0)"/>
    </g>
   </g>
   <g id="text_15">
    <!-- 1 (20%) -->
    <g style="fill: #1a1a1a" transform="translate(196.915165 51.877037) scale(0.06 -0.06)">
     <use xlink:href="#DejaVuSerif-31"/>
     <use xlink:href="#DejaVuSerif-20" transform="translate(63.623047 0)"/>
     <use xlink:href="#DejaVuSerif-28" transform="translate(95.410156 0)"/>
     <use xlink:href="#DejaVuSerif-32" transform="translate(134.423828 0)"/>
     <use xlink:href="#DejaVuSerif-30" transform="translate(198.046875 0)"/>
     <use xlink:href="#DejaVuSerif-25" transform="translate(261.669922 0)"/>
     <use xlink:href="#DejaVuSerif-29" transform="translate(356.689453 0)"/>
    </g>
   </g>
   <g id="text_16">
    <!-- 1 (20%) -->
    <g style="fill: #1a1a1a" transform="translate(196.915165 72.300262) scale(0.06 -0.06)">
     <use xlink:href="#DejaVuSerif-31"/>
     <use xlink:href="#DejaVuSerif-20" transform="translate(63.623047 0)"/>
     <use xlink:href="#DejaVuSerif-28" transform="translate(95.410156 0)"/>
     <use xlink:href="#DejaVuSerif-32" transform="translate(134.423828 0)"/>
     <use xlink:href="#DejaVuSerif-30" transform="translate(198.046875 0)"/>
     <use xlink:href="#DejaVuSerif-25" transform="translate(261.669922 0)"/>
     <use xlink:href="#DejaVuSerif-29" transform="translate(356.689453 0)"/>
    </g>
   </g>
   <g id="text_17">
    <!-- 0 (0%) -->
    <g style="fill: #1a1a1a" transform="translate(90.572308 92.723488) scale(0.06 -0.06)">
     <use xlink:href="#DejaVuSerif-30"/>
     <use xlink:href="#DejaVuSerif-20" transform="translate(63.623047 0)"/>
     <use xlink:href="#DejaVuSerif-28" transform="translate(95.410156 0)"/>
     <use xlink:href="#DejaVuSerif-30" transform="translate(134.423828 0)"/>
     <use xlink:href="#DejaVuSerif-25" transform="translate(198.046875 0)"/>
     <use xlink:href="#DejaVuSerif-29" transform="translate(293.066406 0)"/>
    </g>
   </g>
   <g id="text_18">
    <!-- 1 (20%) -->
    <g style="fill: #1a1a1a" transform="translate(196.915165 113.146713) scale(0.06 -0.06)">
     <use xlink:href="#DejaVuSerif-31"/>
     <use xlink:href="#DejaVuSerif-20" transform="translate(63.623047 0)"/>
     <use xlink:href="#DejaVuSerif-28" transform="translate(95.410156 0)"/>
     <use xlink:href="#DejaVuSerif-32" transform="translate(134.423828 0)"/>
     <use xlink:href="#DejaVuSerif-30" transform="translate(198.046875 0)"/>
     <use xlink:href="#DejaVuSerif-25" transform="translate(261.669922 0)"/>
     <use xlink:href="#DejaVuSerif-29" transform="translate(356.689453 0)"/>
    </g>
   </g>
   <g id="text_19">
    <!-- 1 (20%) -->
    <g style="fill: #1a1a1a" transform="translate(196.915165 133.569938) scale(0.06 -0.06)">
     <use xlink:href="#DejaVuSerif-31"/>
     <use xlink:href="#DejaVuSerif-20" transform="translate(63.623047 0)"/>
     <use xlink:href="#DejaVuSerif-28" transform="translate(95.410156 0)"/>
     <use xlink:href="#DejaVuSerif-32" transform="translate(134.423828 0)"/>
     <use xlink:href="#DejaVuSerif-30" transform="translate(198.046875 0)"/>
     <use xlink:href="#DejaVuSerif-25" transform="translate(261.669922 0)"/>
     <use xlink:href="#DejaVuSerif-29" transform="translate(356.689453 0)"/>
    </g>
   </g>
   <g id="text_20">
    <!-- Failure taxonomy (hand-labeled, first-fit) -->
    <g style="fill: #1a1a1a" transform="translate(78.252344 13.27875) scale(0.08 -0.08)">
     <defs>
      <path id="DejaVuSerif-46" d="M 353 0 
L 353 331 
L 947 331 
L 947 4331 
L 353 4331 
L 353 4666 
L 4172 4666 
L 4172 3628 
L 3788 3628 
L 3788 4281 
L 1581 4281 
L 1581 2719 
L 3175 2719 
L 3175 3303 
L 3559 3303 
L 3559 1753 
L 3175 1753 
L 3175 2338 
L 1581 2338 
L 1581 331 
L 2328 331 
L 2328 0 
L 353 0 
z
" transform="scale(0.015625)"/>
      <path id="DejaVuSerif-78" d="M 1863 2028 
L 2559 2988 
L 2113 2988 
L 2113 3322 
L 3391 3322 
L 3391 2988 
L 2950 2988 
L 2059 1759 
L 3097 331 
L 3531 331 
L 3531 0 
L 1997 0 
L 1997 331 
L 2419 331 
L 1697 1325 
L 972 331 
L 1403 331 
L 1403 0 
L 141 0 
L 141 331 
L 581 331 
L 1497 1594 
L 488 2988 
L 78 2988 
L 78 3322 
L 1563 3322 
L 1563 2988 
L 1166 2988 
L 1863 2028 
z
" transform="scale(0.015625)"/>
      <path id="DejaVuSerif-2d" d="M 281 1959 
L 1881 1959 
L 1881 1472 
L 281 1472 
L 281 1959 
z
" transform="scale(0.015625)"/>
      <path id="DejaVuSerif-2c" d="M 231 -622 
Q 525 -406 662 -114 
Q 800 178 800 594 
L 800 709 
L 1416 709 
Q 1391 175 1164 -208 
Q 938 -591 481 -872 
L 231 -622 
z
" transform="scale(0.015625)"/>
     </defs>
     <use xlink:href="#DejaVuSerif-46"/>
     <use xlink:href="#DejaVuSerif-61" transform="translate(62.634766 0)"/>
     <use xlink:href="#DejaVuSerif-69" transform="translate(122.253906 0)"/>
     <use xlink:href="#DejaVuSerif-6c" transform="translate(154.236328 0)"/>
     <use xlink:href="#DejaVuSerif-75" transform="translate(186.21875 0)"/>
     <use xlink:href="#DejaVuSerif-72" transform="translate(250.623047 0)"/>
     <use xlink:href="#DejaVuSerif-65" transform="translate(298.425781 0)"/>
     <use xlink:href="#DejaVuSerif-20" transform="translate(357.605469 0)"/>
     <use xlink:href="#DejaVuSerif-74" transform="translate(389.392578 0)"/>
     <use xlink:href="#DejaVuSerif-61" transform="translate(429.578125 0)"/>
     <use xlink:href="#DejaVuSerif-78" transform="translate(489.197266 0)"/>
     <use xlink:href="#DejaVuSerif-6f" transform="translate(545.59375 0)"/>
     <use xlink:href="#DejaVuSerif-6e" transform="translate(605.798828 0)"/>
     <use xlink:href="#DejaVuSerif-6f" transform="translate(670.203125 0)"/>
     <use xlink:href="#DejaVuSerif-6d" transform="translate(730.408203 0)"/>
     <use xlink:href="#DejaVuSerif-79" transform="translate(825.232422 0)"/>
     <use xlink:href="#DejaVuSerif-20" transform="translate(881.726562 0)"/>
     <use xlink:href="#DejaVuSerif-28" transform="translate(913.513672 0)"/>
     <use xlink:href="#DejaVuSerif-68" transform="translate(952.527344 0)"/>
     <use xlink:href="#DejaVuSerif-61" transform="translate(1016.931641 0)"/>
     <use xlink:href="#DejaVuSerif-6e" transform="translate(1076.550781 0)"/>
     <use xlink:href="#DejaVuSerif-64" transform="translate(1140.955078 0)"/>
     <use xlink:href="#DejaVuSerif-2d" transform="translate(1204.96875 0)"/>
     <use xlink:href="#DejaVuSerif-6c" transform="translate(1238.757812 0)"/>
     <use xlink:href="#DejaVuSerif-61" transform="translate(1270.740234 0)"/>
     <use xlink:href="#DejaVuSerif-62" transform="translate(1330.359375 0)"/>
     <use xlink:href="#DejaVuSerif-65" transform="translate(1394.373047 0)"/>
     <use xlink:href="#DejaVuSerif-6c" transform="translate(1453.552734 0)"/>
     <use xlink:href="#DejaVuSerif-65" transform="translate(1485.535156 0)"/>
     <use xlink:href="#DejaVuSerif-64" transform="translate(1544.714844 0)"/>
     <use xlink:href="#DejaVuSerif-2c" transform="translate(1608.728516 0)"/>
     <use xlink:href="#DejaVuSerif-20" transform="translate(1640.515625 0)"/>
     <use xlink:href="#DejaVuSerif-66" transform="translate(1672.302734 0)"/>
     <use xlink:href="#DejaVuSerif-69" transform="translate(1709.314453 0)"/>
     <use xlink:href="#DejaVuSerif-72" transform="translate(1741.296875 0)"/>
     <use xlink:href="#DejaVuSerif-73" transform="translate(1789.099609 0)"/>
     <use xlink:href="#DejaVuSerif-74" transform="translate(1840.417969 0)"/>
     <use xlink:href="#DejaVuSerif-2d" transform="translate(1880.603516 0)"/>
     <use xlink:href="#DejaVuSerif-66" transform="translate(1914.392578 0)"/>
     <use xlink:href="#DejaVuSerif-69" transform="translate(1951.404297 0)"/>
     <use xlink:href="#DejaVuSerif-74" transform="translate(1983.386719 0)"/>
     <use xlink:href="#DejaVuSerif-29" transform="translate(2023.572266 0)"/>
    </g>
   </g>
  </g>
 </g>
 <defs>
  <clipPath id="pb3e9247f00">
   <rect x="86.318594" y="17.27875" width="148.88" height="127.155"/>
  </clipPath>
 </defs>
</svg>
